<?xml version="1.0" encoding="utf-8"?>
<!-- Generator: Adobe Illustrator 21.0.2, SVG Export Plug-In . SVG Version: 6.00 Build 0)  -->
<svg version="1.1" id="Layer_1" xmlns="http://www.w3.org/2000/svg" xmlns:xlink="http://www.w3.org/1999/xlink" x="0px" y="0px"
	 viewBox="0 0 64 64" style="enable-background:new 0 0 64 64;" xml:space="preserve">
<g>
	<path d="M64,30.1c-0.2-3.7-1.9-7.1-4.6-9.2c0.1-3.1-0.9-6.2-2.9-8.5c-1.8-2.2-4.3-3.6-7-4c-1.7-3.5-4.9-5.9-8.6-6.4
		c-3.3-0.5-6.4,0.5-8.8,2.5c-2.4-2.1-5.6-3-8.8-2.5c-3.8,0.6-6.9,3-8.6,6.4c-2.7,0.4-5.2,1.8-7,4c-2,2.4-3,5.4-2.9,8.5
		C1.7,23.2,0,26.8,0,30.6c0,4.5,2.4,8.6,6.1,10.7C5.9,44,6.6,46.7,8,49c1.4,2.2,3.4,3.8,5.8,4.7c1.2,4.2,4.4,7.3,8.5,8.2
		c3.5,0.8,7-0.1,9.7-2.4c2,1.7,4.5,2.7,7.1,2.7c0.8,0,1.7-0.1,2.5-0.3c4.2-1,7.3-4.1,8.5-8.2c2.3-0.8,4.3-2.5,5.8-4.7
		c1.5-2.3,2.1-5,1.9-7.6C61.8,39.1,64.2,34.8,64,30.1z M23.4,57c-2.1-0.5-4.5-2.2-5.1-5.7c-0.2-1-1-1.9-2-2.1
		c-1.7-0.3-3.2-1.4-4.2-2.9c-1.1-1.7-1.5-3.8-1-5.9c0.3-1.3-0.4-2.5-1.6-2.9C6.8,36.5,5,33.8,5,30.6c0-2.6,1.4-5.1,3.5-6.3
		c0.9-0.5,1.4-1.6,1.2-2.6c-0.4-2.2,0.2-4.5,1.6-6.1c1.3-1.5,3-2.3,4.8-2.3h0c0,0,0.1,0,0.1,0c1.1,0,2-0.7,2.4-1.7
		c0.8-2.5,2.8-4.3,5.3-4.7c2.1-0.3,4.2,0.5,5.6,2.2v45.8C27.9,56.7,25.7,57.5,23.4,57z M54.4,37.4c-1.2,0.4-1.9,1.7-1.6,2.9
		c0.5,2,0.1,4.2-1,5.9c-1,1.5-2.5,2.6-4.2,2.9c-1,0.2-1.8,1-2,2.1c-0.6,3.5-3,5.3-5.1,5.7c-2.3,0.5-4.5-0.2-6.1-2.1V9.1
		c1.4-1.7,3.5-2.5,5.6-2.2c2.5,0.4,4.4,2.1,5.3,4.7c0.3,1,1.3,1.7,2.4,1.7l0.1,0c1.8,0,3.5,0.8,4.8,2.3c1.4,1.7,2,3.9,1.6,6.1
		c-0.2,1,0.3,2.1,1.2,2.6c2,1.2,3.4,3.5,3.5,6C59.1,33.6,57.2,36.5,54.4,37.4z"/>
	<path d="M23.9,27.4c-0.6,0.2-2.5,1-4.3,2.3c-0.4-0.3-0.5-0.6-0.6-0.7c-0.4-1,0-2.5,0.2-3c0.6-1.2,0.1-2.7-1.2-3.3
		c-1.2-0.6-2.7-0.1-3.3,1.2c-0.2,0.4-1.7,3.8-0.3,7.1c0.4,0.9,1.1,1.9,2.3,2.8c0,0.1-0.1,0.3-0.1,0.4c-0.3,1.6,0,4.1,3.1,6.7
		c0.5,0.4,1,0.6,1.6,0.6c0.7,0,1.4-0.3,1.9-0.9c0.9-1.1,0.7-2.6-0.3-3.5c-1-0.8-1.5-1.6-1.4-2c0.2-0.9,2.3-2.3,4-3
		c1.3-0.5,2-1.9,1.5-3.2C26.6,27.6,25.2,26.9,23.9,27.4z"/>
	<path d="M47.9,22.7c-1.2,0.6-1.8,2.1-1.2,3.3c0.2,0.5,0.7,2,0.2,3c-0.1,0.1-0.2,0.4-0.6,0.7c-1.7-1.4-3.7-2.1-4.3-2.3
		c-1.3-0.5-2.7,0.2-3.2,1.5c-0.5,1.3,0.2,2.7,1.5,3.2c1.8,0.6,3.9,2.1,4,3c0.1,0.4-0.5,1.2-1.4,2c-1.1,0.9-1.2,2.5-0.3,3.5
		c0.5,0.6,1.2,0.9,1.9,0.9c0.6,0,1.1-0.2,1.6-0.6c3.1-2.6,3.4-5.1,3.1-6.7c0-0.1-0.1-0.3-0.1-0.4c1.2-0.9,1.9-2,2.3-2.8
		c1.4-3.3-0.1-6.7-0.3-7.1C50.6,22.7,49.2,22.2,47.9,22.7z"/>
</g>
</svg>
