<svg xmlns="http://www.w3.org/2000/svg" viewBox="0 0 64 64">
  <g id="Layer_2" data-name="Layer 2">
    <g id="Layer_1-2" data-name="Layer 1">
      <path d="M31.72,64a31.56,31.56,0,0,1-4.35-.42l-.73-6.67-.34-.09a24.66,24.66,0,0,1-4-1.35L22,55.3l-5,4.55a34.49,34.49,0,0,1-3.52-2.32l2.44-6.14-.26-.24a25.29,25.29,0,0,1-3.13-3.33l-.2-.26L5.84,49.23a32.62,32.62,0,0,1-1.95-3.58l5-4.27-.12-.33a25.51,25.51,0,0,1-1.2-4.64l0-.33L1.07,34.59C1,33.89,1,33.19,1,32.49s0-1.27.06-1.92l6.41-1.48,0-.34a24.62,24.62,0,0,1,1.19-4.69l.11-.32-5-4.28A31.24,31.24,0,0,1,5.75,15.9l6.45,1.67.2-.26a24.73,24.73,0,0,1,3.19-3.44l.26-.23L13.41,7.49A32.24,32.24,0,0,1,16.86,5.2l5,4.54.3-.13a25,25,0,0,1,4.14-1.42l.34-.09.73-6.66A30.28,30.28,0,0,1,31.65,1L34,7.49l.33,0a25.05,25.05,0,0,1,3.93.6l.33.08,3.84-5.68a31.41,31.41,0,0,1,4.1,1.66l-.94,7,.27.17a23.91,23.91,0,0,1,2.88,2.11l.26.22,6.15-3.32a31.51,31.51,0,0,1,3,3.45L54,19.56l.16.28a24,24,0,0,1,1.47,2.91l.14.31L62.88,23A31.52,31.52,0,0,1,64,27.46l-6.38,3.23V31c0,.49.05,1,.05,1.48s0,1.1-.06,1.64l0,.33,6.37,3.22a30.27,30.27,0,0,1-1.1,4.51l-7.11-.09-.13.3a24.57,24.57,0,0,1-1.46,2.84l-.16.28,4.12,5.78a32.08,32.08,0,0,1-3,3.47L48.9,51.45l-.26.22a24.85,24.85,0,0,1-2.78,2l-.27.18.94,7a30.22,30.22,0,0,1-4.19,1.67L38.51,56.8l-.34.08a26,26,0,0,1-3.76.58l-.32,0Zm.72-44.62A13.15,13.15,0,1,0,45.66,32.49,13.2,13.2,0,0,0,32.44,19.34Z" transform="translate(-0.5 -0.51)"/><path d="M31.31,1.53l2.13,5.83.23.61.64,0a25.06,25.06,0,0,1,3.85.6l.67.16.39-.57,3.43-5.08A30.21,30.21,0,0,1,46,4.47l-.85,6.28-.09.64.55.34a25.84,25.84,0,0,1,2.82,2.07l.52.44.6-.32,5.52-3a33,33,0,0,1,2.45,2.84L53.8,19l-.38.53.33.56A23.92,23.92,0,0,1,55.19,23l.27.61h.67l6.38-.08a31.77,31.77,0,0,1,.89,3.71l-5.77,2.91-.58.3,0,.65c0,.51,0,1,0,1.45s0,1.06-.05,1.61l0,.66.59.3L63.37,38a31.69,31.69,0,0,1-.91,3.73l-6.41-.09h-.67l-.26.61A22.8,22.8,0,0,1,53.69,45l-.33.56.38.53,3.72,5.22A32.28,32.28,0,0,1,55,54.15l-5.54-3-.6-.32-.51.43a24.82,24.82,0,0,1-2.72,2l-.55.34.09.64L46,60.52a32.84,32.84,0,0,1-3.44,1.37l-3.43-5.08-.39-.57-.67.15a25.5,25.5,0,0,1-3.69.57l-.64,0-.22.6-2.14,5.84a32.31,32.31,0,0,1-3.55-.34l-.64-6-.08-.69-.68-.17A24.68,24.68,0,0,1,22.51,55l-.59-.26-.48.43-4.52,4.09a30.4,30.4,0,0,1-2.85-1.87l2.17-5.47.25-.65L16,50.78a24.29,24.29,0,0,1-3.06-3.27L12.5,47l-.63.17-5.8,1.5a32,32,0,0,1-1.56-2.88L8.94,42l.52-.45-.24-.65A25.35,25.35,0,0,1,8,36.33l-.1-.67-.66-.15L1.55,34.19c0-.57-.05-1.14-.05-1.7s0-1,0-1.52l5.71-1.32.67-.15.1-.67a23.67,23.67,0,0,1,1.16-4.6l.23-.65-.52-.45-4.44-3.8A30,30,0,0,1,6,16.48L11.75,18l.64.17.41-.53a24.88,24.88,0,0,1,3.12-3.37l.52-.46-.26-.65L14,7.66a30.38,30.38,0,0,1,2.78-1.84L21.3,9.89l.48.44.6-.26a25,25,0,0,1,4.06-1.4l.68-.16.08-.7.64-5.94a30.65,30.65,0,0,1,3.47-.34m1.13,44.61A13.65,13.65,0,1,0,18.71,32.49,13.7,13.7,0,0,0,32.44,46.14M32,.51a31.33,31.33,0,0,0-5.07.5L26.2,7.7A26.71,26.71,0,0,0,22,9.15l-5-4.56a31,31,0,0,0-4.12,2.74l2.44,6.17A26.28,26.28,0,0,0,12,17L5.52,15.32a32.47,32.47,0,0,0-2.3,4.27l5,4.3A25.66,25.66,0,0,0,7,28.68L.58,30.17c0,.76-.08,1.54-.08,2.32s0,1.68.1,2.5l6.46,1.5a25.65,25.65,0,0,0,1.22,4.73l-5,4.29a31.33,31.33,0,0,0,2.34,4.3l6.5-1.69a25.72,25.72,0,0,0,3.19,3.41l-2.45,6.16a32.66,32.66,0,0,0,4.19,2.77l5.06-4.58a25.34,25.34,0,0,0,4.07,1.39l.73,6.7a32.44,32.44,0,0,0,5.15.5L34.45,58a26.94,26.94,0,0,0,3.84-.59l3.85,5.7a31.59,31.59,0,0,0,4.94-2l-.95-7A25.87,25.87,0,0,0,49,52.05l6.18,3.34A32.21,32.21,0,0,0,58.7,51.3l-4.15-5.81A24.62,24.62,0,0,0,56,42.6l7.14.1a32.3,32.3,0,0,0,1.3-5.3l-6.41-3.23q.06-.84.06-1.68c0-.51,0-1-.05-1.5l6.42-3.25a32,32,0,0,0-1.26-5.28l-7.13.09a25.82,25.82,0,0,0-1.5-3l4.16-5.81a32.36,32.36,0,0,0-3.51-4.06L49.09,13a25.82,25.82,0,0,0-2.94-2.16l1-7a31.61,31.61,0,0,0-4.86-1.95l-3.85,5.7a25.19,25.19,0,0,0-4-.62L32,.51Zm.44,44.63A12.65,12.65,0,1,1,45.16,32.49,12.69,12.69,0,0,1,32.44,45.14Z" transform="translate(-0.5 -0.51)"/>
    </g>
  </g>
</svg>
