<?xml version="1.0" encoding="utf-8"?>
<!-- Generator: Adobe Illustrator 22.0.1, SVG Export Plug-In . SVG Version: 6.00 Build 0)  -->
<svg version="1.1" id="Layer_1" xmlns="http://www.w3.org/2000/svg" xmlns:xlink="http://www.w3.org/1999/xlink" x="0px" y="0px"
	 viewBox="0 0 64 64" style="enable-background:new 0 0 64 64;" xml:space="preserve">
<g>
	<path d="M32,0C14.4,0,0,14.4,0,32s14.4,32,32,32s32-14.4,32-32S49.6,0,32,0z M32,58.7c-14.7,0-26.7-12-26.7-26.7S17.3,5.3,32,5.3
		s26.7,12,26.7,26.7S46.7,58.7,32,58.7z"/>
	<path d="M42.7,18.7H21.3c-1.6,0-2.7,1.1-2.7,2.7c0,1.6,1.1,2.7,2.7,2.7h21.3c1.6,0,2.7-1.1,2.7-2.7C45.3,19.7,44.3,18.7,42.7,18.7z
		"/>
	<path d="M42.7,29.3H21.3c-1.6,0-2.7,1.1-2.7,2.7c0,1.6,1.1,2.7,2.7,2.7h21.3c1.6,0,2.7-1.1,2.7-2.7C45.3,30.4,44.3,29.3,42.7,29.3z
		"/>
	<path d="M42.7,40H21.3c-1.6,0-2.7,1.1-2.7,2.7c0,1.6,1.1,2.7,2.7,2.7h21.3c1.6,0,2.7-1.1,2.7-2.7C45.3,41.1,44.3,40,42.7,40z"/>
</g>
</svg>
