<?xml version="1.0" encoding="utf-8"?>
<!-- Generator: Adobe Illustrator 21.0.2, SVG Export Plug-In . SVG Version: 6.00 Build 0)  -->
<svg version="1.1" id="Layer_1" xmlns="http://www.w3.org/2000/svg" xmlns:xlink="http://www.w3.org/1999/xlink" x="0px" y="0px"
	 viewBox="0 0 64 64" style="enable-background:new 0 0 64 64;" xml:space="preserve">
<g>
	<path d="M53,7.4H41.8V2.5c0-1.4-1.1-2.5-2.5-2.5H24.7c-1.4,0-2.5,1.1-2.5,2.5v4.9H11c-1.4,0-2.5,1.1-2.5,2.5v9.4
		c0,1.4,1.1,2.5,2.5,2.5h0.7v39.6c0,1.4,1.1,2.5,2.5,2.5h35.5c1.4,0,2.5-1.1,2.5-2.5V21.9H53c1.4,0,2.5-1.1,2.5-2.5V9.9
		C55.5,8.6,54.4,7.4,53,7.4z M27.2,5h9.6v2.4h-9.6V5z M13.5,12.4h11.2h14.6h11.2v4.4h-37V12.4z M47.2,59H16.8V21.9h30.5V59z"/>
	<path d="M32,50.8c1.4,0,2.5-1.1,2.5-2.5V32c0-1.4-1.1-2.5-2.5-2.5s-2.5,1.1-2.5,2.5v16.3C29.5,49.7,30.6,50.8,32,50.8z"/>
	<path d="M42,50.8c1.4,0,2.5-1.1,2.5-2.5V32c0-1.4-1.1-2.5-2.5-2.5s-2.5,1.1-2.5,2.5v16.3C39.5,49.7,40.6,50.8,42,50.8z"/>
	<path d="M22,50.8c1.4,0,2.5-1.1,2.5-2.5V32c0-1.4-1.1-2.5-2.5-2.5s-2.5,1.1-2.5,2.5v16.3C19.5,49.7,20.6,50.8,22,50.8z"/>
</g>
</svg>
